<svg version="1.1" id="Layer_1" xmlns="http://www.w3.org/2000/svg" xmlns:xlink="http://www.w3.org/1999/xlink" x="0px" y="0px"
	 width="100%" viewBox="0 0 1498 440" enable-background="new 0 0 1498 440" xml:space="preserve">
<path fill="#FFFFFF" opacity="1.000000" stroke="none" 
	d="
M1098.000000,441.000000 
	C732.047119,441.000000 366.594208,441.000000 1.070650,441.000000 
	C1.070650,294.399353 1.070650,147.798676 1.070650,1.099001 
	C500.333313,1.099001 999.666687,1.099001 1498.973877,1.099001 
	C1498.973877,147.739258 1498.973877,294.369629 1498.973877,441.000000 
	C1365.465210,441.000000 1231.982544,441.000000 1098.000000,441.000000 
M64.131401,195.431381 
	C63.647179,195.882034 63.195236,196.374451 62.674091,196.777328 
	C39.290863,214.854630 30.966780,241.402908 40.507500,269.304596 
	C44.541496,281.101990 51.389671,291.192627 62.509460,298.640015 
	C72.955742,307.180573 85.219498,310.919098 98.421623,311.343170 
	C111.564941,311.765320 124.732574,311.475128 137.889130,311.410767 
	C141.526016,311.392975 145.161423,311.066803 149.660614,311.309143 
	C164.809097,311.389008 179.968048,311.829865 195.101501,311.391296 
	C202.307434,311.182495 209.718201,310.133026 216.602814,308.039337 
	C258.800842,295.206238 275.336487,243.000488 247.120270,209.271301 
	C238.104797,198.494324 230.775909,187.404968 224.444733,175.002991 
	C220.363373,167.008148 212.887314,160.746307 206.688538,153.140244 
	C206.150452,152.508957 205.684021,151.794907 205.064011,151.258270 
	C172.086212,122.714767 119.559967,124.518799 88.185890,155.289536 
	C76.849335,166.408081 68.332199,179.229034 64.131401,195.431381 
M1345.309937,87.308723 
	C1327.795166,81.317215 1309.829346,78.608864 1291.282837,79.128265 
	C1226.013184,80.956177 1167.709229,127.443779 1153.158447,190.970978 
	C1140.235474,247.391220 1155.155151,296.140930 1197.313354,336.060425 
	C1211.890137,349.863190 1229.122681,359.606262 1248.105835,366.170715 
	C1254.214844,368.283234 1259.157227,366.083740 1259.466675,360.535126 
	C1259.935425,352.125397 1259.588989,343.670197 1259.588989,334.870392 
	C1255.171997,335.350128 1251.572632,335.878052 1247.954346,336.111237 
	C1228.407227,337.371033 1213.910767,327.752716 1208.704834,312.497284 
	C1205.992920,304.550049 1200.761108,297.996216 1193.614990,293.045929 
	C1191.313354,291.451538 1189.955322,288.495117 1188.165527,286.161774 
	C1191.143799,285.644073 1194.250244,284.311829 1197.077271,284.756195 
	C1206.904663,286.300842 1212.985229,293.022888 1218.077759,301.020020 
	C1226.864136,314.818359 1242.601074,319.428955 1257.413696,312.643494 
	C1258.604614,312.098022 1259.792114,310.842438 1260.301025,309.631104 
	C1262.755371,303.788788 1264.976685,297.848541 1267.329224,291.818542 
	C1264.123657,291.240753 1260.194214,290.602234 1256.293945,289.818481 
	C1224.820557,283.493622 1207.834351,266.247192 1203.300781,235.479950 
	C1200.417603,215.914917 1201.980469,197.208466 1215.572754,181.231125 
	C1216.478394,180.166626 1216.515503,177.802795 1216.105835,176.270691 
	C1213.402466,166.157959 1213.740845,156.154266 1216.628662,146.169235 
	C1218.566528,139.469101 1219.076538,139.086456 1226.101318,140.281540 
	C1236.658691,142.077576 1245.990845,146.888901 1254.808716,152.664551 
	C1258.040405,154.781342 1260.932373,155.063782 1264.585693,154.172394 
	C1284.656128,149.275055 1304.900269,149.152954 1325.005249,153.583435 
	C1330.660156,154.829651 1334.896851,154.397202 1339.774170,151.203522 
	C1348.433472,145.533493 1357.795288,141.137650 1368.351807,139.957458 
	C1371.914795,139.559128 1374.316895,140.525940 1374.839966,144.282806 
	C1375.844360,151.497726 1378.276489,158.955734 1377.270020,165.900360 
	C1375.915771,175.244080 1375.866089,183.336075 1382.801270,190.409576 
	C1383.467651,191.089157 1383.739258,192.160675 1384.177856,193.058182 
	C1391.665283,208.376526 1391.039551,224.421005 1387.976074,240.516006 
	C1384.897827,256.690002 1377.292114,270.197235 1363.072266,279.339294 
	C1353.057861,285.777557 1341.882202,288.871979 1330.274048,290.720215 
	C1328.082520,291.069122 1325.893677,291.435272 1322.968750,291.913696 
	C1330.795532,300.391266 1332.560425,309.908081 1332.509766,319.983002 
	C1332.446777,332.479462 1332.264404,344.975891 1332.292725,357.471985 
	C1332.310425,365.259918 1336.742798,368.380188 1344.057373,366.031097 
	C1406.143677,346.091949 1449.907593,281.069794 1443.545166,216.348053 
	C1437.401978,153.856400 1404.403564,110.926476 1345.309937,87.308723 
M605.500061,277.990631 
	C620.230286,262.175507 630.510376,243.623596 638.552734,223.753433 
	C639.730835,220.842804 641.046021,219.785141 644.239502,219.656342 
	C658.803223,219.069061 671.979248,214.710175 680.796570,202.393600 
	C689.659546,190.013260 690.052612,187.624146 674.042969,183.125793 
	C665.488220,180.722092 656.093628,181.307373 646.566406,180.500351 
	C643.515442,165.923645 634.809448,154.522583 620.408264,147.007111 
	C608.139343,164.859833 603.973328,183.122711 614.699829,203.107498 
	C606.401184,207.091354 598.126770,208.200455 589.583984,208.197525 
	C525.451233,208.175568 461.318451,208.185150 397.185699,208.188110 
	C395.520386,208.188187 393.837463,208.076309 392.192963,208.271393 
	C386.179932,208.984650 383.101929,212.505646 382.989594,218.604721 
	C382.705353,234.035126 385.064087,249.068695 389.724030,263.762756 
	C399.126312,293.410889 417.905762,312.764465 449.171783,319.201080 
	C470.267578,323.543976 491.406677,324.304901 512.692322,321.925751 
	C548.356079,317.939423 579.844910,304.903534 605.500061,277.990631 
M927.717285,282.509064 
	C927.717285,279.513397 927.449463,276.487701 927.781311,273.529236 
	C928.254944,269.306183 926.581299,266.982269 922.864868,264.928497 
	C907.583008,256.483551 892.500488,247.678253 877.328674,239.033447 
	C872.106934,236.058121 866.838623,233.164337 861.039551,229.924942 
	C861.039551,255.006531 860.984253,279.130768 861.174438,303.253082 
	C861.186096,304.731232 862.814880,306.753815 864.238525,307.579651 
	C883.798889,318.926300 903.452271,330.112579 923.095947,341.315247 
	C924.322021,342.014465 925.657104,342.522522 927.717102,343.480072 
	C927.717102,322.978333 927.717102,303.242310 927.717285,282.509064 
M927.717468,222.500031 
	C927.717468,210.846420 927.607300,199.191055 927.791321,187.540344 
	C927.840271,184.440796 926.767639,182.840027 924.092896,181.352814 
	C911.880249,174.562393 899.815857,167.505875 887.678772,160.579010 
	C879.067932,155.664673 870.426270,150.804596 861.037109,145.489365 
	C861.037109,147.849960 861.037170,149.289169 861.037170,150.728378 
	C861.037170,172.703812 861.133118,194.680069 860.943237,216.653870 
	C860.911377,220.340942 862.154297,222.291092 865.277466,224.045349 
	C885.001953,235.124237 904.619263,246.393951 924.286438,257.575134 
	C925.203430,258.096466 926.259094,258.373840 927.717285,258.949097 
	C927.717285,246.757950 927.717285,235.128998 927.717468,222.500031 
M826.261841,125.257187 
	C813.475342,117.996994 800.688904,110.736801 787.381775,103.180977 
	C787.204834,104.981293 787.059326,105.774109 787.058838,106.567001 
	C787.045105,129.555771 786.971558,152.545258 787.187988,175.531982 
	C787.204956,177.330917 788.831116,179.851181 790.437134,180.786697 
	C810.284607,192.347748 830.264343,203.681808 850.224976,215.048080 
	C851.169861,215.586166 852.254822,215.878342 853.582642,216.407913 
	C853.749817,215.364212 853.932251,214.755341 853.932739,214.146347 
	C853.950500,190.824448 854.029053,167.501770 853.798279,144.182159 
	C853.781006,142.434174 851.916260,140.088760 850.263733,139.077881 
	C842.599792,134.389664 834.707703,130.074478 826.261841,125.257187 
M988.951965,152.446182 
	C972.203308,162.024017 955.498657,171.680481 938.663208,181.103271 
	C935.817444,182.696091 934.741516,184.360748 934.765137,187.661224 
	C934.924805,209.966263 934.842468,232.272995 934.863647,254.579163 
	C934.864929,255.952957 935.080505,257.326538 935.238525,259.199524 
	C956.724609,246.932770 977.680725,235.053879 998.485229,222.915344 
	C1000.009521,222.025986 1001.238403,219.265854 1001.254517,217.364090 
	C1001.444092,194.893036 1001.382568,172.419815 1001.358826,149.947189 
	C1001.357544,148.729156 1001.106445,147.511383 1000.909790,145.735580 
	C996.781738,148.046616 993.183838,150.060852 988.951965,152.446182 
M520.355347,165.874695 
	C521.689941,166.585526 523.010010,167.877365 524.361572,167.911316 
	C532.181824,168.107819 540.011353,167.907547 547.833740,168.054428 
	C551.228210,168.118164 552.116455,166.566330 552.053162,163.489929 
	C551.919556,156.999496 551.879089,150.500488 552.066956,144.012741 
	C552.167358,140.546463 550.854797,139.215652 547.420593,139.274460 
	C539.930603,139.402695 532.435852,139.390717 524.945251,139.280121 
	C521.569641,139.230301 520.106934,140.539795 520.176270,143.997421 
	C520.316406,150.987366 520.230652,157.981842 520.355347,165.874695 
M528.682617,133.749130 
	C535.011292,133.748062 541.341187,133.670197 547.668030,133.777985 
	C550.879944,133.832687 552.125305,132.517212 552.054871,129.298660 
	C551.909058,122.640099 551.903320,115.973648 552.056335,109.315414 
	C552.131531,106.041992 550.817871,104.894241 547.625610,104.948860 
	C539.966858,105.079895 532.302734,105.082428 524.644043,104.947807 
	C521.413086,104.891022 520.124390,106.166214 520.187805,109.362068 
	C520.300049,115.022301 520.213806,120.686409 520.216370,126.348900 
	C520.219727,133.722473 520.222107,133.722473 528.682617,133.749130 
M576.465698,202.656097 
	C579.293823,202.656433 582.124084,202.586548 584.949402,202.676147 
	C587.988953,202.772537 589.653015,201.652451 589.617004,198.365417 
	C589.542358,191.545547 589.577881,184.724274 589.600708,177.903671 
	C589.610413,175.011566 588.368652,173.764816 585.345886,173.818329 
	C577.529419,173.956757 569.707458,173.950928 561.890747,173.821136 
	C558.800903,173.769836 557.809326,175.071686 557.859680,178.003143 
	C557.976807,184.821869 557.977600,191.645386 557.859619,198.464081 
	C557.807556,201.473434 559.087280,202.707321 562.004028,202.669525 
	C566.494995,202.611313 570.987244,202.655121 576.465698,202.656097 
M511.126801,168.007324 
	C514.378113,168.224716 514.970154,166.268417 514.941345,163.567230 
	C514.872009,157.079193 514.798340,150.586731 514.968750,144.102417 
	C515.058350,140.690521 513.787598,139.237106 510.345337,139.284485 
	C502.859680,139.387512 495.370728,139.383652 487.885040,139.281769 
	C484.593719,139.236954 482.987549,140.329590 483.089203,143.906448 
	C483.273468,150.390015 483.266785,156.885834 483.093964,163.369980 
	C483.002441,166.804794 484.240173,168.141357 487.729797,168.061813 
	C495.212982,167.891220 502.702728,168.009766 511.126801,168.007324 
M528.610229,173.856644 
	C520.216675,173.859543 520.216003,173.859543 520.214355,182.227463 
	C520.213379,187.390488 520.308716,192.555832 520.180908,197.715698 
	C520.099976,200.983261 521.185852,202.732544 524.730530,202.688675 
	C532.390625,202.593903 540.052856,202.624969 547.713806,202.673370 
	C550.882751,202.693405 552.135254,201.303574 552.059692,198.096817 
	C551.902771,191.438553 551.910339,184.771805 552.054321,178.112976 
	C552.125671,174.809891 550.738953,173.730164 547.567139,173.813461 
	C541.575500,173.970856 535.576843,173.857437 528.610229,173.856644 
M485.318665,202.414948 
	C493.808655,202.498474 502.298645,202.581085 510.788635,202.666046 
	C513.691956,202.695084 514.983215,201.319839 514.944702,198.364182 
	C514.855591,191.533630 514.864136,184.700516 514.941223,177.869675 
	C514.975098,174.866913 513.666565,173.771454 510.700378,173.817612 
	C502.870789,173.939423 495.036835,173.939346 487.207184,173.819138 
	C484.133392,173.771927 483.079407,175.105942 483.117065,178.015671 
	C483.205414,184.846252 483.083679,191.679932 483.211273,198.509308 
	C483.233521,199.698807 484.059174,200.873322 485.318665,202.414948 
M477.124512,177.735397 
	C477.453949,174.562012 475.746918,173.789215 472.915619,173.827789 
	C465.282349,173.931778 457.643646,173.988876 450.013336,173.805710 
	C446.638275,173.724701 445.717499,175.139252 445.784668,178.246094 
	C445.928131,184.881882 445.965485,191.526886 445.773224,198.160202 
	C445.669037,201.755264 447.267334,202.757736 450.552734,202.697983 
	C457.687195,202.568207 464.829102,202.523834 471.960968,202.711533 
	C475.732208,202.810760 477.381317,201.658371 477.199951,197.606216 
	C476.918213,191.311920 477.126007,184.995682 477.124512,177.735397 
M408.808868,179.635437 
	C408.809998,185.777176 408.955841,191.923630 408.756378,198.058853 
	C408.642090,201.575089 410.062256,202.757233 413.434631,202.697556 
	C420.901947,202.565384 428.374023,202.601288 435.842682,202.689835 
	C439.026581,202.727585 440.253876,201.425751 440.173981,198.208496 
	C440.009125,191.572815 439.968323,184.924957 440.187866,178.292435 
	C440.307434,174.679947 438.807953,173.729462 435.469208,173.808777 
	C428.169556,173.982162 420.857056,174.036575 413.561615,173.790268 
	C409.799652,173.663239 408.336395,175.037643 408.808868,179.635437 
M445.827332,161.383667 
	C445.869751,167.997391 445.869751,168.000580 452.304443,168.003967 
	C459.133209,168.007568 465.964569,167.893524 472.789612,168.052811 
	C475.984741,168.127380 477.270691,167.068680 477.180328,163.750275 
	C476.994476,156.926544 477.033447,150.092545 477.165161,143.266342 
	C477.218750,140.489609 476.156036,139.304153 473.417999,139.318207 
	C465.423584,139.359253 457.428741,139.362885 449.434387,139.319107 
	C446.562103,139.303391 445.757172,140.802002 445.801575,143.420120 
	C445.897644,149.081345 445.828644,154.745361 445.827332,161.383667 
z"/>
<path fill="#030303" opacity="1.000000" stroke="none" 
	d="
M1345.673584,87.452126 
	C1404.403564,110.926476 1437.401978,153.856400 1443.545166,216.348053 
	C1449.907593,281.069794 1406.143677,346.091949 1344.057373,366.031097 
	C1336.742798,368.380188 1332.310425,365.259918 1332.292725,357.471985 
	C1332.264404,344.975891 1332.446777,332.479462 1332.509766,319.983002 
	C1332.560425,309.908081 1330.795532,300.391266 1322.968750,291.913696 
	C1325.893677,291.435272 1328.082520,291.069122 1330.274048,290.720215 
	C1341.882202,288.871979 1353.057861,285.777557 1363.072266,279.339294 
	C1377.292114,270.197235 1384.897827,256.690002 1387.976074,240.516006 
	C1391.039551,224.421005 1391.665283,208.376526 1384.177856,193.058182 
	C1383.739258,192.160675 1383.467651,191.089157 1382.801270,190.409576 
	C1375.866089,183.336075 1375.915771,175.244080 1377.270020,165.900360 
	C1378.276489,158.955734 1375.844360,151.497726 1374.839966,144.282806 
	C1374.316895,140.525940 1371.914795,139.559128 1368.351807,139.957458 
	C1357.795288,141.137650 1348.433472,145.533493 1339.774170,151.203522 
	C1334.896851,154.397202 1330.660156,154.829651 1325.005249,153.583435 
	C1304.900269,149.152954 1284.656128,149.275055 1264.585693,154.172394 
	C1260.932373,155.063782 1258.040405,154.781342 1254.808716,152.664551 
	C1245.990845,146.888901 1236.658691,142.077576 1226.101318,140.281540 
	C1219.076538,139.086456 1218.566528,139.469101 1216.628662,146.169235 
	C1213.740845,156.154266 1213.402466,166.157959 1216.105835,176.270691 
	C1216.515503,177.802795 1216.478394,180.166626 1215.572754,181.231125 
	C1201.980469,197.208466 1200.417603,215.914917 1203.300781,235.479950 
	C1207.834351,266.247192 1224.820557,283.493622 1256.293945,289.818481 
	C1260.194214,290.602234 1264.123657,291.240753 1267.329224,291.818542 
	C1264.976685,297.848541 1262.755371,303.788788 1260.301025,309.631104 
	C1259.792114,310.842438 1258.604614,312.098022 1257.413696,312.643494 
	C1242.601074,319.428955 1226.864136,314.818359 1218.077759,301.020020 
	C1212.985229,293.022888 1206.904663,286.300842 1197.077271,284.756195 
	C1194.250244,284.311829 1191.143799,285.644073 1188.165527,286.161774 
	C1189.955322,288.495117 1191.313354,291.451538 1193.614990,293.045929 
	C1200.761108,297.996216 1205.992920,304.550049 1208.704834,312.497284 
	C1213.910767,327.752716 1228.407227,337.371033 1247.954346,336.111237 
	C1251.572632,335.878052 1255.171997,335.350128 1259.588989,334.870392 
	C1259.588989,343.670197 1259.935425,352.125397 1259.466675,360.535126 
	C1259.157227,366.083740 1254.214844,368.283234 1248.105835,366.170715 
	C1229.122681,359.606262 1211.890137,349.863190 1197.313354,336.060425 
	C1155.155151,296.140930 1140.235474,247.391220 1153.158447,190.970978 
	C1167.709229,127.443779 1226.013184,80.956177 1291.282837,79.128265 
	C1309.829346,78.608864 1327.795166,81.317215 1345.673584,87.452126 
z"/>
<path fill="#2598ED" opacity="1.000000" stroke="none" 
	d="
M605.249878,278.243011 
	C579.844910,304.903534 548.356079,317.939423 512.692322,321.925751 
	C491.406677,324.304901 470.267578,323.543976 449.171783,319.201080 
	C417.905762,312.764465 399.126312,293.410889 389.724030,263.762756 
	C385.064087,249.068695 382.705353,234.035126 382.989594,218.604721 
	C383.101929,212.505646 386.179932,208.984650 392.192963,208.271393 
	C393.837463,208.076309 395.520386,208.188187 397.185699,208.188110 
	C461.318451,208.185150 525.451233,208.175568 589.583984,208.197525 
	C598.126770,208.200455 606.401184,207.091354 614.699829,203.107498 
	C603.973328,183.122711 608.139343,164.859833 620.408264,147.007111 
	C634.809448,154.522583 643.515442,165.923645 646.566406,180.500351 
	C656.093628,181.307373 665.488220,180.722092 674.042969,183.125793 
	C690.052612,187.624146 689.659546,190.013260 680.796570,202.393600 
	C671.979248,214.710175 658.803223,219.069061 644.239502,219.656342 
	C641.046021,219.785141 639.730835,220.842804 638.552734,223.753433 
	C630.510376,243.623596 620.230286,262.175507 605.249878,278.243011 
z"/>
<path fill="#4688F5" opacity="1.000000" stroke="none" 
	d="
M206.932663,153.707779 
	C212.887314,160.746307 220.363373,167.008148 224.444733,175.002991 
	C230.775909,187.404968 238.104797,198.494324 247.120270,209.271301 
	C275.336487,243.000488 258.800842,295.206238 216.602814,308.039337 
	C209.718201,310.133026 202.307434,311.182495 195.101501,311.391296 
	C179.968048,311.829865 164.809097,311.389008 149.238327,310.713104 
	C148.860580,297.583130 148.905106,285.049164 149.411804,272.419922 
	C165.189621,272.287476 180.505310,272.254669 195.820969,272.211884 
	C209.491348,272.173706 220.099075,263.398163 221.748413,250.775848 
	C223.348694,238.529144 215.166733,227.305084 201.978302,224.244446 
	C198.231247,223.374893 197.245667,221.586319 197.279587,218.036026 
	C197.379501,207.570007 194.054138,198.110428 187.836960,189.752396 
	C185.371750,186.438324 182.380219,183.515778 179.920059,180.193604 
	C189.118759,171.217422 198.025711,162.462601 206.932663,153.707779 
z"/>
<path fill="#F9BD0A" opacity="1.000000" stroke="none" 
	d="
M62.202164,298.085205 
	C51.389671,291.192627 44.541496,281.101990 40.507500,269.304596 
	C30.966780,241.402908 39.290863,214.854630 62.674091,196.777328 
	C63.195236,196.374451 63.647179,195.882034 64.700241,195.122894 
	C68.324135,193.201721 71.304688,191.423996 74.447350,190.005356 
	C87.048271,184.317139 100.158890,183.195511 114.061073,185.994629 
	C127.509331,189.502655 138.774017,195.917664 147.551254,206.270233 
	C148.570862,207.472824 149.438171,210.477646 148.794662,211.163788 
	C140.408005,220.106140 131.735718,228.780609 122.816559,237.846497 
	C121.285255,235.728348 120.340515,234.389526 119.363251,233.074890 
	C112.413139,223.725235 98.818954,220.896759 88.349838,226.615128 
	C77.793228,232.381302 73.207291,245.038681 77.224792,256.131775 
	C79.523056,262.477692 84.297195,266.383850 89.133972,270.569885 
	C80.059227,279.942596 71.130692,289.013885 62.202164,298.085205 
z"/>
<path fill="#6145E9" opacity="1.000000" stroke="none" 
	d="
M927.717163,283.007690 
	C927.717102,303.242310 927.717102,322.978333 927.717102,343.480072 
	C925.657104,342.522522 924.322021,342.014465 923.095947,341.315247 
	C903.452271,330.112579 883.798889,318.926300 864.238525,307.579651 
	C862.814880,306.753815 861.186096,304.731232 861.174438,303.253082 
	C860.984253,279.130768 861.039551,255.006531 861.039551,229.924942 
	C866.838623,233.164337 872.106934,236.058121 877.328674,239.033447 
	C892.500488,247.678253 907.583008,256.483551 922.864868,264.928497 
	C926.581299,266.982269 928.254944,269.306183 927.781311,273.529236 
	C927.449463,276.487701 927.717285,279.513397 927.717163,283.007690 
z"/>
<path fill="#6145E9" opacity="1.000000" stroke="none" 
	d="
M927.717407,223.000031 
	C927.717285,235.128998 927.717285,246.757950 927.717285,258.949097 
	C926.259094,258.373840 925.203430,258.096466 924.286438,257.575134 
	C904.619263,246.393951 885.001953,235.124237 865.277466,224.045349 
	C862.154297,222.291092 860.911377,220.340942 860.943237,216.653870 
	C861.133118,194.680069 861.037170,172.703812 861.037170,150.728378 
	C861.037170,149.289169 861.037109,147.849960 861.037109,145.489365 
	C870.426270,150.804596 879.067932,155.664673 887.678772,160.579010 
	C899.815857,167.505875 911.880249,174.562393 924.092896,181.352814 
	C926.767639,182.840027 927.840271,184.440796 927.791321,187.540344 
	C927.607300,199.191055 927.717468,210.846420 927.717407,223.000031 
z"/>
<path fill="#6045E9" opacity="1.000000" stroke="none" 
	d="
M826.579590,125.441444 
	C834.707703,130.074478 842.599792,134.389664 850.263733,139.077881 
	C851.916260,140.088760 853.781006,142.434174 853.798279,144.182159 
	C854.029053,167.501770 853.950500,190.824448 853.932739,214.146347 
	C853.932251,214.755341 853.749817,215.364212 853.582642,216.407913 
	C852.254822,215.878342 851.169861,215.586166 850.224976,215.048080 
	C830.264343,203.681808 810.284607,192.347748 790.437134,180.786697 
	C788.831116,179.851181 787.204956,177.330917 787.187988,175.531982 
	C786.971558,152.545258 787.045105,129.555771 787.058838,106.567001 
	C787.059326,105.774109 787.204834,104.981293 787.381775,103.180977 
	C800.688904,110.736801 813.475342,117.996994 826.579590,125.441444 
z"/>
<path fill="#4141B2" opacity="1.000000" stroke="none" 
	d="
M989.268921,152.260651 
	C993.183838,150.060852 996.781738,148.046616 1000.909790,145.735580 
	C1001.106445,147.511383 1001.357544,148.729156 1001.358826,149.947189 
	C1001.382568,172.419815 1001.444092,194.893036 1001.254517,217.364090 
	C1001.238403,219.265854 1000.009521,222.025986 998.485229,222.915344 
	C977.680725,235.053879 956.724609,246.932770 935.238525,259.199524 
	C935.080505,257.326538 934.864929,255.952957 934.863647,254.579163 
	C934.842468,232.272995 934.924805,209.966263 934.765137,187.661224 
	C934.741516,184.360748 935.817444,182.696091 938.663208,181.103271 
	C955.498657,171.680481 972.203308,162.024017 989.268921,152.260651 
z"/>
<path fill="#EA4639" opacity="1.000000" stroke="none" 
	d="
M113.653030,185.932129 
	C100.158890,183.195511 87.048271,184.317139 74.447350,190.005356 
	C71.304688,191.423996 68.324135,193.201721 64.960808,194.861816 
	C68.332199,179.229034 76.849335,166.408081 88.185890,155.289536 
	C119.559967,124.518799 172.086212,122.714767 205.064011,151.258270 
	C205.684021,151.794907 206.150452,152.508957 206.810608,153.424011 
	C198.025711,162.462601 189.118759,171.217422 179.593292,180.093445 
	C167.242752,171.981995 154.402084,168.180191 140.094086,170.893402 
	C129.615295,172.880463 120.303940,177.118530 113.653030,185.932129 
z"/>
<path fill="#38A957" opacity="1.000000" stroke="none" 
	d="
M62.355812,298.362610 
	C71.130692,289.013885 80.059227,279.942596 89.501816,270.561951 
	C95.732582,270.917999 101.438278,272.017090 107.168198,272.162598 
	C121.089355,272.516083 135.021759,272.426392 148.949646,272.515228 
	C148.905106,285.049164 148.860580,297.583130 148.806763,310.499573 
	C145.161423,311.066803 141.526016,311.392975 137.889130,311.410767 
	C124.732574,311.475128 111.564941,311.765320 98.421623,311.343170 
	C85.219498,310.919098 72.955742,307.180573 62.355812,298.362610 
z"/>
<path fill="#2A9AED" opacity="1.000000" stroke="none" 
	d="
M520.296692,165.424561 
	C520.230652,157.981842 520.316406,150.987366 520.176270,143.997421 
	C520.106934,140.539795 521.569641,139.230301 524.945251,139.280121 
	C532.435852,139.390717 539.930603,139.402695 547.420593,139.274460 
	C550.854797,139.215652 552.167358,140.546463 552.066956,144.012741 
	C551.879089,150.500488 551.919556,156.999496 552.053162,163.489929 
	C552.116455,166.566330 551.228210,168.118164 547.833740,168.054428 
	C540.011353,167.907547 532.181824,168.107819 524.361572,167.911316 
	C523.010010,167.877365 521.689941,166.585526 520.296692,165.424561 
z"/>
<path fill="#2999ED" opacity="1.000000" stroke="none" 
	d="
M528.211609,133.748993 
	C520.222107,133.722473 520.219727,133.722473 520.216370,126.348900 
	C520.213806,120.686409 520.300049,115.022301 520.187805,109.362068 
	C520.124390,106.166214 521.413086,104.891022 524.644043,104.947807 
	C532.302734,105.082428 539.966858,105.079895 547.625610,104.948860 
	C550.817871,104.894241 552.131531,106.041992 552.056335,109.315414 
	C551.903320,115.973648 551.909058,122.640099 552.054871,129.298660 
	C552.125305,132.517212 550.879944,133.832687 547.668030,133.777985 
	C541.341187,133.670197 535.011292,133.748062 528.211609,133.748993 
z"/>
<path fill="#2799ED" opacity="1.000000" stroke="none" 
	d="
M575.972290,202.655884 
	C570.987244,202.655121 566.494995,202.611313 562.004028,202.669525 
	C559.087280,202.707321 557.807556,201.473434 557.859619,198.464081 
	C557.977600,191.645386 557.976807,184.821869 557.859680,178.003143 
	C557.809326,175.071686 558.800903,173.769836 561.890747,173.821136 
	C569.707458,173.950928 577.529419,173.956757 585.345886,173.818329 
	C588.368652,173.764816 589.610413,175.011566 589.600708,177.903671 
	C589.577881,184.724274 589.542358,191.545547 589.617004,198.365417 
	C589.653015,201.652451 587.988953,202.772537 584.949402,202.676147 
	C582.124084,202.586548 579.293823,202.656433 575.972290,202.655884 
z"/>
<path fill="#2A9AED" opacity="1.000000" stroke="none" 
	d="
M510.658295,168.008636 
	C502.702728,168.009766 495.212982,167.891220 487.729797,168.061813 
	C484.240173,168.141357 483.002441,166.804794 483.093964,163.369980 
	C483.266785,156.885834 483.273468,150.390015 483.089203,143.906448 
	C482.987549,140.329590 484.593719,139.236954 487.885040,139.281769 
	C495.370728,139.383652 502.859680,139.387512 510.345337,139.284485 
	C513.787598,139.237106 515.058350,140.690521 514.968750,144.102417 
	C514.798340,150.586731 514.872009,157.079193 514.941345,163.567230 
	C514.970154,166.268417 514.378113,168.224716 510.658295,168.008636 
z"/>
<path fill="#299AED" opacity="1.000000" stroke="none" 
	d="
M529.095642,173.856598 
	C535.576843,173.857437 541.575500,173.970856 547.567139,173.813461 
	C550.738953,173.730164 552.125671,174.809891 552.054321,178.112976 
	C551.910339,184.771805 551.902771,191.438553 552.059692,198.096817 
	C552.135254,201.303574 550.882751,202.693405 547.713806,202.673370 
	C540.052856,202.624969 532.390625,202.593903 524.730530,202.688675 
	C521.185852,202.732544 520.099976,200.983261 520.180908,197.715698 
	C520.308716,192.555832 520.213379,187.390488 520.214355,182.227463 
	C520.216003,173.859543 520.216675,173.859543 529.095642,173.856598 
z"/>
<path fill="#2A9AED" opacity="1.000000" stroke="none" 
	d="
M484.916199,202.234863 
	C484.059174,200.873322 483.233521,199.698807 483.211273,198.509308 
	C483.083679,191.679932 483.205414,184.846252 483.117065,178.015671 
	C483.079407,175.105942 484.133392,173.771927 487.207184,173.819138 
	C495.036835,173.939346 502.870789,173.939423 510.700378,173.817612 
	C513.666565,173.771454 514.975098,174.866913 514.941223,177.869675 
	C514.864136,184.700516 514.855591,191.533630 514.944702,198.364182 
	C514.983215,201.319839 513.691956,202.695084 510.788635,202.666046 
	C502.298645,202.581085 493.808655,202.498474 484.916199,202.234863 
z"/>
<path fill="#2799ED" opacity="1.000000" stroke="none" 
	d="
M477.125427,178.212067 
	C477.126007,184.995682 476.918213,191.311920 477.199951,197.606216 
	C477.381317,201.658371 475.732208,202.810760 471.960968,202.711533 
	C464.829102,202.523834 457.687195,202.568207 450.552734,202.697983 
	C447.267334,202.757736 445.669037,201.755264 445.773224,198.160202 
	C445.965485,191.526886 445.928131,184.881882 445.784668,178.246094 
	C445.717499,175.139252 446.638275,173.724701 450.013336,173.805710 
	C457.643646,173.988876 465.282349,173.931778 472.915619,173.827789 
	C475.746918,173.789215 477.453949,174.562012 477.125427,178.212067 
z"/>
<path fill="#2799ED" opacity="1.000000" stroke="none" 
	d="
M408.805695,179.152771 
	C408.336395,175.037643 409.799652,173.663239 413.561615,173.790268 
	C420.857056,174.036575 428.169556,173.982162 435.469208,173.808777 
	C438.807953,173.729462 440.307434,174.679947 440.187866,178.292435 
	C439.968323,184.924957 440.009125,191.572815 440.173981,198.208496 
	C440.253876,201.425751 439.026581,202.727585 435.842682,202.689835 
	C428.374023,202.601288 420.901947,202.565384 413.434631,202.697556 
	C410.062256,202.757233 408.642090,201.575089 408.756378,198.058853 
	C408.955841,191.923630 408.809998,185.777176 408.805695,179.152771 
z"/>
<path fill="#2799ED" opacity="1.000000" stroke="none" 
	d="
M445.827271,160.895950 
	C445.828644,154.745361 445.897644,149.081345 445.801575,143.420120 
	C445.757172,140.802002 446.562103,139.303391 449.434387,139.319107 
	C457.428741,139.362885 465.423584,139.359253 473.417999,139.318207 
	C476.156036,139.304153 477.218750,140.489609 477.165161,143.266342 
	C477.033447,150.092545 476.994476,156.926544 477.180328,163.750275 
	C477.270691,167.068680 475.984741,168.127380 472.789612,168.052811 
	C465.964569,167.893524 459.133209,168.007568 452.304443,168.003967 
	C445.869751,168.000580 445.869751,167.997391 445.827271,160.895950 
z"/>
<path fill="#FDFDFC" opacity="1.000000" stroke="none" 
	d="
M149.411804,272.419922 
	C135.021759,272.426392 121.089355,272.516083 107.168198,272.162598 
	C101.438278,272.017090 95.732582,270.917999 89.648018,270.260559 
	C84.297195,266.383850 79.523056,262.477692 77.224792,256.131775 
	C73.207291,245.038681 77.793228,232.381302 88.349838,226.615128 
	C98.818954,220.896759 112.413139,223.725235 119.363251,233.074890 
	C120.340515,234.389526 121.285255,235.728348 122.816559,237.846497 
	C131.735718,228.780609 140.408005,220.106140 148.794662,211.163788 
	C149.438171,210.477646 148.570862,207.472824 147.551254,206.270233 
	C138.774017,195.917664 127.509331,189.502655 114.061073,185.994629 
	C120.303940,177.118530 129.615295,172.880463 140.094086,170.893402 
	C154.402084,168.180191 167.242752,171.981995 179.301544,180.314819 
	C182.380219,183.515778 185.371750,186.438324 187.836960,189.752396 
	C194.054138,198.110428 197.379501,207.570007 197.279587,218.036026 
	C197.245667,221.586319 198.231247,223.374893 201.978302,224.244446 
	C215.166733,227.305084 223.348694,238.529144 221.748413,250.775848 
	C220.099075,263.398163 209.491348,272.173706 195.820969,272.211884 
	C180.505310,272.254669 165.189621,272.287476 149.411804,272.419922 
z"/>
</svg>